<?xml version="1.0" standalone="no"?>
<!DOCTYPE svg PUBLIC "-//W3C//DTD SVG 20010904//EN"
 "http://www.w3.org/TR/2001/REC-SVG-20010904/DTD/svg10.dtd">
<svg version="1.0" xmlns="http://www.w3.org/2000/svg"
 width="300.000000pt" height="300.000000pt" viewBox="0 0 300.000000 300.000000"
 preserveAspectRatio="xMidYMid meet">
<metadata>
Created by potrace 1.10, written by Peter Selinger 2001-2011
</metadata>
<g transform="translate(0.000000,300.000000) scale(0.100000,-0.100000)"
fill="#000000" stroke="none">
<path d="M1312 1884 c-21 -14 -22 -22 -22 -140 l0 -125 -72 3 -73 3 3 43 c4
52 -17 82 -58 82 -27 0 -60 -27 -60 -48 0 -20 -14 -14 -42 18 -16 18 -36 30
-51 30 -24 0 -57 -27 -57 -48 0 -7 -7 -12 -15 -12 -8 0 -15 5 -15 10 0 18 -39
50 -61 50 -26 0 -67 -31 -62 -47 3 -7 -3 -9 -16 -6 -12 3 -21 12 -21 19 0 8
-11 20 -25 26 -56 25 -100 -31 -75 -93 10 -23 10 -33 1 -42 -15 -15 -14 -52 3
-66 16 -14 514 -18 1455 -13 306 1 346 3 362 18 23 21 24 32 2 56 -15 17 -15
20 3 53 18 34 18 35 -2 62 -31 41 -63 41 -107 -2 -30 -29 -37 -33 -37 -17 0
25 -31 52 -58 52 -25 0 -62 -33 -62 -55 0 -9 -6 -12 -15 -9 -8 4 -15 12 -15
19 0 18 -34 45 -57 45 -11 0 -37 -16 -57 -36 -28 -27 -37 -32 -34 -18 4 23
-31 54 -61 54 -43 0 -74 -54 -51 -90 16 -25 -9 -40 -66 -40 -35 0 -54 4 -54
12 0 6 -7 3 -15 -8 -13 -17 -14 -5 -15 113 0 172 11 163 -210 163 -134 0 -170
-3 -188 -16z m376 -181 l2 -163 -190 0 -190 0 0 158 c0 87 3 162 7 166 4 3 88
5 187 4 l181 -3 3 -162z m-1024 8 c33 -36 -18 -83 -52 -49 -17 17 -15 45 6 57
24 14 26 14 46 -8z m150 0 c33 -36 -18 -83 -52 -49 -17 17 -15 45 6 57 24 14
26 14 46 -8z m150 0 c33 -36 -18 -83 -52 -49 -17 17 -15 45 6 57 24 14 26 14
46 -8z m150 0 c33 -36 -18 -83 -52 -49 -17 17 -15 45 6 57 24 14 26 14 46 -8z
m817 9 c21 -12 25 -40 7 -58 -18 -18 -46 -14 -58 9 -9 16 -8 25 6 40 20 22 20
22 45 9z m150 0 c21 -12 25 -40 7 -58 -18 -18 -46 -14 -58 9 -9 16 -8 25 6 40
20 22 20 22 45 9z m150 0 c21 -12 25 -40 7 -58 -18 -18 -46 -14 -58 9 -9 16
-8 25 6 40 20 22 20 22 45 9z m150 0 c21 -12 25 -40 7 -58 -18 -18 -46 -14
-58 9 -9 16 -8 25 6 40 20 22 20 22 45 9z m-1650 -57 c0 -5 2 -16 4 -26 3 -14
-2 -17 -18 -15 -30 4 -37 48 -8 48 12 0 21 -3 22 -7z m155 -19 c1 -22 -22 -28
-44 -11 -9 7 -10 13 -1 24 17 20 44 12 45 -13z m150 15 c8 -14 -21 -43 -35
-35 -19 12 -13 46 8 46 11 0 23 -5 27 -11z m971 -5 c3 -8 1 -20 -5 -26 -15
-15 -43 8 -35 28 7 19 32 18 40 -2z m153 -3 c0 -27 -19 -36 -37 -18 -18 18 -9
37 18 37 12 0 19 -7 19 -19z m150 0 c0 -27 -19 -36 -37 -18 -18 18 -9 37 18
37 12 0 19 -7 19 -19z m-1032 -81 c3 -20 0 -20 -337 -20 l-341 0 0 23 0 22
337 -2 c331 -2 338 -3 341 -23z m1122 3 l0 -23 -340 0 c-323 0 -340 1 -340 18
0 10 2 21 4 23 2 2 155 4 340 4 l336 0 0 -22z"/>
<path d="M1330 1843 c0 -10 41 -13 170 -13 101 0 170 4 170 10 0 5 -71 10
-170 12 -131 2 -170 0 -170 -9z"/>
<path d="M1330 1685 l0 -125 170 0 170 0 0 125 0 125 -170 0 -170 0 0 -125z
m155 90 c-19 -9 -24 -14 -12 -15 18 0 23 -15 7 -25 -10 -6 -67 19 -62 29 1 3
-1 5 -5 4 -5 -2 -7 -9 -5 -15 2 -7 -4 -13 -12 -13 -8 0 -21 -3 -30 -6 -11 -4
-16 -1 -16 11 0 11 5 15 15 12 8 -4 17 -2 20 3 4 6 -3 10 -14 10 -12 0 -21 5
-21 10 0 6 34 10 83 9 78 -1 80 -1 52 -14z m165 5 c0 -5 -9 -10 -21 -10 -11 0
-18 -4 -14 -10 3 -5 12 -7 20 -3 10 3 15 -1 15 -12 0 -12 -5 -15 -16 -11 -9 3
-22 6 -30 6 -8 0 -14 9 -14 19 0 12 -8 21 -22 24 -13 2 1 5 30 6 29 0 52 -3
52 -9z m-110 -3 c0 -17 -71 -172 -80 -175 -7 -3 -11 0 -9 5 53 130 73 173 80
173 5 0 9 -1 9 -3z m90 -77 c0 -6 -54 -40 -64 -40 -15 0 -4 19 15 25 20 7 19
7 -5 30 -37 34 -32 39 14 13 22 -13 40 -25 40 -28z m-190 30 c0 -5 -10 -15
-22 -21 l-23 -12 23 -10 c20 -9 31 -27 16 -27 -9 0 -64 34 -64 40 0 6 51 38
63 39 4 1 7 -3 7 -9z m-70 -76 c0 -15 16 -19 22 -5 2 5 14 4 28 -1 23 -9 24
-11 6 -17 -17 -7 -18 -8 -3 -14 28 -10 19 -32 -13 -34 -22 -2 -30 2 -31 15 0
10 -3 12 -6 5 -11 -28 -23 -10 -23 33 0 27 4 43 10 39 6 -3 10 -13 10 -21z
m214 -2 c14 3 26 1 26 -3 0 -5 5 -9 10 -9 6 0 10 7 10 15 0 8 5 15 10 15 15 0
13 -80 -2 -81 -7 0 -38 -3 -68 -5 -73 -5 -87 4 -69 45 8 18 19 29 26 26 7 -2
13 1 13 8 0 8 3 8 9 -2 5 -8 19 -12 35 -9z"/>
<path d="M1665 1387 c-58 -42 -75 -66 -100 -142 -5 -15 -8 -16 -14 -6 -6 9
-25 12 -60 10 -49 -4 -51 -3 -51 22 0 15 -7 29 -15 33 -8 3 -15 12 -15 21 0 8
-4 15 -9 15 -4 0 -24 14 -42 30 -41 37 -69 35 -88 -5 -12 -23 -16 -26 -19 -12
-2 9 -10 17 -18 17 -8 0 -17 7 -20 15 -8 20 -37 19 -57 -3 -29 -32 -35 -64
-21 -111 7 -25 11 -48 8 -53 -3 -4 -1 -8 5 -8 5 0 13 -9 16 -20 5 -15 15 -20
45 -20 21 0 41 4 45 10 3 6 15 5 31 -2 20 -9 30 -9 46 1 12 7 24 9 31 3 7 -5
52 -9 101 -11 68 -1 93 2 106 14 15 14 18 14 30 0 15 -18 100 -21 118 -3 10
10 17 10 32 0 25 -16 82 -16 98 0 10 10 17 10 32 0 26 -16 85 -16 98 1 5 6 12
23 14 37 4 35 25 31 47 -10 16 -30 24 -35 61 -38 45 -3 85 20 76 45 -3 7 -1
13 5 13 6 0 7 6 3 13 -4 6 -3 9 1 4 5 -4 9 -22 9 -39 1 -26 6 -33 26 -38 14
-3 39 -4 55 0 24 4 31 12 33 33 2 16 -1 34 -6 40 -5 7 -10 39 -11 72 -4 87
-37 118 -82 76 -19 -17 -20 -23 -9 -55 16 -49 9 -66 -16 -37 -54 66 -86 77
-119 41 -22 -24 -38 -25 -55 -5 -17 20 -99 20 -128 -1 -21 -15 -25 -15 -41 0
-21 19 -78 21 -84 4 -2 -7 -11 1 -20 18 -26 50 -38 55 -72 31z m-465 -36 c0
-24 3 -28 20 -24 14 4 20 0 20 -11 0 -9 -8 -16 -20 -16 -17 0 -20 -7 -20 -40
0 -33 3 -40 20 -40 11 0 20 -7 20 -15 0 -10 -10 -15 -29 -15 -31 0 -41 18 -41
78 0 22 -5 32 -15 32 -8 0 -15 7 -15 15 0 8 7 15 15 15 9 0 15 9 15 25 0 16 6
25 15 25 10 0 15 -10 15 -29z m124 -7 c-3 -22 -1 -41 8 -51 9 -11 10 -17 2
-20 -7 -2 -9 -19 -7 -43 4 -35 2 -40 -16 -40 -20 0 -21 5 -21 95 0 88 1 95 20
95 17 0 19 -5 14 -36z m386 -59 c0 -89 -1 -95 -21 -95 -12 0 -18 4 -13 11 3 6
1 15 -7 19 -10 7 -10 11 0 24 10 12 11 19 2 30 -9 10 -9 16 -1 21 7 5 9 21 5
46 -6 35 -5 39 14 39 20 0 21 -5 21 -95z m558 15 c-2 -60 0 -80 9 -80 7 0 13
-7 13 -15 0 -11 -11 -15 -40 -15 -29 0 -40 4 -40 15 0 8 6 15 13 15 9 0 11 18
9 65 -2 36 -8 65 -13 65 -5 0 -9 7 -9 15 0 10 10 15 31 15 l31 0 -4 -80z
m-878 15 c0 -8 5 -15 10 -15 6 0 10 -25 10 -55 0 -47 -3 -55 -19 -55 -17 0
-19 7 -16 55 2 52 1 55 -21 55 -23 0 -31 10 -17 23 13 13 53 7 53 -8z m270 0
c0 -8 -6 -15 -14 -15 -16 0 -29 -41 -20 -64 3 -9 12 -16 20 -16 8 0 14 -7 14
-15 0 -8 -9 -15 -20 -15 -11 0 -20 6 -20 14 0 8 -5 16 -12 18 -6 2 -11 19 -11
38 0 19 5 36 11 38 7 2 12 10 12 18 0 8 9 14 20 14 11 0 20 -7 20 -15z m170 1
c0 -8 5 -16 12 -18 6 -2 11 -19 11 -38 0 -19 -5 -36 -11 -38 -7 -2 -12 -10
-12 -18 0 -9 -11 -14 -30 -14 -19 0 -30 5 -30 14 0 8 -5 16 -12 18 -6 2 -11
19 -11 38 0 19 5 36 11 38 7 2 12 10 12 18 0 9 11 14 30 14 19 0 30 -5 30 -14z
m101 -3 c1 -17 2 -17 6 0 7 27 59 23 67 -5 9 -35 8 -38 -15 -38 -15 0 -19 5
-15 15 3 9 0 15 -9 15 -9 0 -12 -6 -9 -15 4 -8 2 -15 -3 -15 -5 0 -9 -11 -9
-25 0 -14 6 -25 13 -25 7 0 13 -7 13 -15 0 -11 -11 -15 -40 -15 -29 0 -40 4
-40 15 0 8 5 15 10 15 6 0 10 18 10 40 0 22 -4 40 -10 40 -5 0 -10 7 -10 15 0
22 40 19 41 -2z m209 2 c0 -8 5 -15 11 -15 6 0 9 -12 7 -27 -3 -25 -7 -28 -37
-28 -19 0 -36 -6 -38 -12 -3 -9 6 -13 26 -13 21 0 31 -5 31 -15 0 -10 -11 -15
-35 -15 -24 0 -35 5 -35 14 0 8 -5 16 -12 18 -6 2 -11 19 -11 38 0 19 5 36 11
38 7 2 12 10 12 18 0 9 11 14 35 14 24 0 35 -5 35 -15z m-580 -110 c0 -12 -13
-15 -60 -15 -47 0 -60 3 -60 15 0 12 13 15 60 15 47 0 60 -3 60 -15z"/>
<path d="M1783 1293 c4 -3 2 -12 -4 -20 -8 -9 -8 -17 0 -26 6 -8 8 -17 4 -20
-3 -4 4 -7 17 -7 13 0 20 3 17 7 -4 3 -2 12 4 19 13 15 -9 54 -30 54 -8 0 -11
-3 -8 -7z"/>
<path d="M2080 1285 c0 -9 9 -15 25 -15 16 0 25 6 25 15 0 9 -9 15 -25 15 -16
0 -25 -6 -25 -15z"/>
<path d="M2362 1389 c-19 -17 -22 -27 -16 -69 4 -28 1 -63 -6 -84 -17 -53 -2
-68 64 -64 l51 3 -2 35 c-8 118 -16 166 -30 182 -21 23 -34 23 -61 -3z m56
-89 c-2 -60 0 -80 9 -80 7 0 13 -7 13 -15 0 -11 -11 -15 -40 -15 -29 0 -40 4
-40 15 0 8 6 15 13 15 8 0 12 20 12 65 0 45 -4 65 -12 65 -7 0 -13 7 -13 15 0
10 10 15 31 15 l31 0 -4 -80z"/>
<path d="M612 1384 c-12 -8 -37 -31 -56 -50 l-33 -34 -23 25 c-27 28 -71 33
-94 10 -8 -8 -21 -15 -29 -15 -8 0 -17 7 -21 15 -10 26 -76 19 -108 -12 -34
-32 -37 -74 -8 -120 17 -29 25 -33 60 -33 22 0 51 7 64 15 21 14 24 14 36 0
20 -24 86 -20 104 7 l16 22 23 -22 c26 -25 104 -31 125 -10 10 10 17 10 32 0
30 -18 93 -15 116 7 20 18 21 18 32 0 17 -26 81 -26 109 1 21 19 21 19 35 -2
11 -16 24 -20 57 -20 62 1 66 9 52 89 -7 37 -15 83 -18 101 -4 27 -9 32 -33
32 -22 0 -30 -6 -39 -31 -9 -27 -14 -30 -33 -24 -43 14 -116 17 -138 5 -17 -9
-26 -8 -45 4 -30 20 -45 20 -81 1 -28 -14 -29 -14 -38 13 -14 43 -30 50 -64
26z m43 -99 c0 -84 -2 -95 -17 -95 -19 0 -20 3 -21 65 -1 106 3 125 21 125 15
0 17 -11 17 -95z m415 80 c0 -8 -9 -15 -20 -15 -11 0 -20 7 -20 15 0 8 9 15
20 15 11 0 20 -7 20 -15z m-730 -42 c0 -5 3 -18 6 -30 5 -17 2 -23 -10 -23 -9
0 -16 7 -16 15 0 8 -7 15 -15 15 -8 0 -15 -6 -15 -14 0 -8 -5 -16 -11 -18 -8
-3 -8 -10 2 -26 16 -25 39 -29 39 -7 0 8 7 15 16 15 12 0 15 -6 10 -22 -3 -13
-6 -26 -6 -30 0 -12 -70 -9 -70 3 0 6 -7 18 -16 26 -16 16 -12 65 7 71 5 2 9
10 9 18 0 9 11 14 35 14 19 0 35 -3 35 -7z m148 -31 c17 -55 -2 -102 -40 -102
-15 0 -28 5 -28 11 0 6 -7 18 -16 26 -16 16 -12 65 7 71 5 2 9 10 9 18 0 9 11
14 28 14 25 0 31 -6 40 -38z m122 23 c0 -8 -6 -15 -14 -15 -16 0 -29 -41 -20
-64 3 -9 12 -16 20 -16 8 0 14 -7 14 -15 0 -8 -9 -15 -20 -15 -11 0 -20 5 -20
11 0 6 -7 18 -16 26 -16 16 -12 65 7 71 5 2 9 10 9 18 0 8 9 14 20 14 11 0 20
-7 20 -15z m180 0 c0 -8 5 -15 11 -15 6 0 9 -12 7 -27 -3 -24 -7 -28 -37 -29
-19 0 -36 -5 -39 -12 -2 -8 8 -12 27 -12 21 0 31 -5 31 -15 0 -10 -11 -15 -35
-15 -24 0 -35 5 -35 14 0 8 -5 16 -12 18 -6 2 -11 19 -11 38 0 19 5 36 11 38
7 2 12 10 12 18 0 9 11 14 35 14 24 0 35 -5 35 -15z m82 -30 c-2 -30 0 -36 7
-25 6 8 11 27 11 43 0 15 5 27 10 27 6 0 10 -12 10 -27 0 -16 5 -35 11 -43 7
-11 9 -5 7 25 -2 31 1 40 15 43 20 4 22 -15 6 -88 -12 -57 -39 -71 -39 -20 0
17 -4 30 -10 30 -5 0 -10 -13 -10 -30 0 -40 -26 -40 -35 0 -4 16 -4 34 0 40 3
5 1 10 -4 10 -6 0 -11 14 -11 31 0 24 4 30 17 27 14 -3 17 -12 15 -43z m196
-10 c-3 -41 -1 -55 9 -55 7 0 13 -7 13 -15 0 -11 -11 -15 -40 -15 -29 0 -40 4
-40 15 0 8 6 15 14 15 10 0 13 10 9 38 -3 20 -9 39 -14 40 -5 2 -9 10 -9 18 0
9 11 14 31 14 l31 0 -4 -55z"/>
<path d="M427 1280 c-7 -27 3 -60 18 -60 17 0 26 26 19 56 -7 29 -30 32 -37 4z"/>
<path d="M730 1285 c0 -9 9 -15 25 -15 16 0 25 6 25 15 0 9 -9 15 -25 15 -16
0 -25 -6 -25 -15z"/>
<path d="M2641 1391 c-10 -7 -16 -33 -19 -78 -2 -37 -8 -72 -13 -77 -5 -6 -9
-17 -9 -25 0 -14 2 -14 10 -1 7 11 11 9 19 -13 9 -24 16 -27 55 -27 37 0 48 5
69 30 39 46 29 98 -31 155 -49 47 -57 51 -81 36z m41 -53 c1 -24 0 -60 -1 -80
-2 -26 2 -38 11 -38 18 0 45 43 29 48 -6 2 -11 10 -11 18 0 8 -4 14 -10 14 -5
0 -10 7 -10 15 0 8 9 15 20 15 11 0 20 -7 20 -15 0 -8 4 -15 9 -15 12 0 22
-45 15 -64 -3 -9 -12 -16 -20 -16 -8 0 -14 -7 -14 -15 0 -22 -50 -20 -51 3 -1
16 -2 16 -6 0 -11 -42 -18 -11 -18 77 0 84 2 95 18 95 13 0 17 -9 19 -42z"/>
<path d="M2521 1256 c-31 -37 9 -103 47 -80 36 23 23 94 -18 94 -10 0 -23 -6
-29 -14z m49 -36 c0 -23 -4 -30 -20 -30 -16 0 -20 7 -20 30 0 23 4 30 20 30
16 0 20 -7 20 -30z"/>
</g>
</svg>
